# 3ds Max Wavefront OBJ Exporter v0.97b - (c)2007 guruware
# File Created: 03.06.2015 19:26:17

mtllib Board1.mtl

#
# object 2DCutLumberBoard1
#

v  118.3643 -5.2365 0.5000
v  130.2929 -4.1348 -0.5000
v  130.2929 -4.1348 0.5000
v  83.4923 -5.9966 -0.5000
v  60.4196 -5.6858 0.5000
v  60.4196 -5.6858 -0.5000
v  83.4923 -5.9966 0.5000
v  102.7948 -5.8491 -0.5000
v  102.7948 -5.8491 0.5000
v  118.3643 -5.2365 -0.5000
v  83.1988 5.3716 -0.5000
v  102.2122 5.5081 0.5000
v  102.2122 5.5081 -0.5000
v  117.3299 6.0884 -0.5000
v  128.4595 7.0885 0.5000
v  128.4595 7.0885 -0.5000
v  117.3299 6.0884 0.5000
v  83.1988 5.3716 0.5000
v  60.3267 5.6858 -0.5000
v  60.3267 5.6858 0.5000
v  32.0097 -6.7666 0.5000
v  32.0097 -6.7666 -0.5000
v  31.9853 4.6077 0.5000
v  31.9853 4.6077 -0.5000
v  0.0000 -5.6867 -0.5000
v  0.0000 -5.6867 0.5000
v  0.0000 5.6867 0.5000
v  0.0000 5.6867 -0.5000
# 28 vertices

vn 0.0616 -0.9943 0.0875
vn 0.1328 -0.9873 -0.0875
vn 0.1328 -0.9873 0.0875
vn -0.0039 -0.9962 -0.0875
vn -0.0215 -0.9959 0.0875
vn -0.0215 -0.9959 -0.0875
vn -0.0039 -0.9962 0.0875
vn 0.0216 -0.9959 -0.0875
vn 0.0216 -0.9959 0.0875
vn 0.0616 -0.9943 -0.0875
vn 0.0042 0.9962 -0.0875
vn -0.0210 0.9959 0.0875
vn -0.0210 0.9959 -0.0875
vn -0.0603 0.9943 -0.0875
vn -0.1294 0.9877 0.0875
vn -0.1294 0.9877 -0.0875
vn -0.0603 0.9943 0.0875
vn 0.0042 0.9962 0.0875
vn 0.0217 0.9959 -0.0875
vn 0.0217 0.9959 0.0875
vn 0.0379 -0.9954 0.0875
vn 0.0379 -0.9954 -0.0875
vn -0.0379 0.9954 0.0875
vn -0.0379 0.9954 -0.0875
vn -0.0336 -0.9956 -0.0875
vn -0.0336 -0.9956 0.0875
vn 0.0000 -0.0000 1.0000
vn 0.0336 0.9956 0.0875
vn 0.0336 0.9956 -0.0875
vn 0.0000 0.0000 -1.0000
vn 0.9869 0.1612 0.0000
vn -1.0000 0.0000 -0.0000
# 32 vertex normals

vt -0.4335 5.6046 0.0000
vt -0.3877 6.4053 0.0000
vt -0.4335 6.4053 0.0000
vt -0.3877 4.0033 0.0000
vt -0.4335 3.2026 0.0000
vt -0.3877 3.2026 0.0000
vt -0.4335 4.0033 0.0000
vt -0.3877 4.8040 0.0000
vt -0.4335 4.8040 0.0000
vt -0.3877 5.6046 0.0000
vt -0.4335 3.9029 0.0000
vt -0.3877 4.6835 0.0000
vt -0.4335 4.6835 0.0000
vt -0.4335 5.4640 0.0000
vt -0.3877 6.2446 0.0000
vt -0.4335 6.2446 0.0000
vt -0.3877 5.4640 0.0000
vt -0.3877 3.9029 0.0000
vt -0.4335 3.1223 0.0000
vt -0.3877 3.1223 0.0000
vt 1.4320 1.1756 0.0000
vt 0.1302 1.2244 0.0000
vt 0.1302 1.1756 0.0000
vt 1.4320 1.2244 0.0000
vt 1.4286 1.2244 0.0000
vt 0.1299 1.1756 0.0000
vt 1.4286 1.1756 0.0000
vt 0.1299 1.2244 0.0000
vt 1.6132 0.4244 0.0000
vt 0.1467 0.3756 0.0000
vt 1.6132 0.3756 0.0000
vt 0.1467 0.4244 0.0000
vt 0.5208 -0.0000 0.0000
vt 0.0494 1.4645 0.0000
vt 0.0000 -0.0000 0.0000
vt -0.0642 5.8819 0.0000
vt 0.5002 5.4196 0.0000
vt 0.4497 5.9658 0.0000
vt -0.0184 5.3723 0.0000
vt 0.5282 4.7067 0.0000
vt 0.0082 4.6801 0.0000
vt 0.5350 3.8229 0.0000
vt 0.0144 3.8095 0.0000
vt 0.5207 2.7665 0.0000
vt 0.0000 2.7622 0.0000
vt 0.5702 1.4657 0.0000
vt 1.6119 0.4244 0.0000
vt 0.1465 0.3756 0.0000
vt 1.6119 0.3756 0.0000
vt 0.1465 0.4244 0.0000
vt 0.4714 1.4645 0.0000
vt 0.0206 5.4196 0.0000
vt 0.5849 5.8819 0.0000
vt 0.0711 5.9658 0.0000
vt 0.5392 5.3723 0.0000
vt -0.0074 4.7067 0.0000
vt 0.5126 4.6801 0.0000
vt -0.0142 3.8229 0.0000
vt 0.5063 3.8095 0.0000
vt 0.0000 2.7665 0.0000
vt 0.5207 2.7622 0.0000
vt -0.0494 1.4657 0.0000
vt 0.0229 0.2604 0.0000
vt -0.0229 -0.2604 0.0000
vt 0.0229 -0.2604 0.0000
vt -0.0229 0.2604 0.0000
vt 0.0000 -0.2604 0.0000
vt 0.0458 0.2604 0.0000
vt 0.0000 0.2604 0.0000
vt 0.0458 -0.2604 0.0000
# 70 texture coords

g 2DCutLumberBoard1
usemtl wire_191191191
s 1
f 1/1/1 2/2/2 3/3/3 
f 4/4/4 5/5/5 6/6/6 
f 4/4/4 7/7/7 5/5/5 
f 8/8/8 7/7/7 4/4/4 
f 8/8/8 9/9/9 7/7/7 
f 10/10/10 9/9/9 8/8/8 
f 10/10/10 1/1/1 9/9/9 
f 2/2/2 1/1/1 10/10/10 
f 11/11/11 12/12/12 13/13/13 
f 14/14/14 15/15/15 16/16/16 
f 14/14/14 17/17/17 15/15/15 
f 14/14/14 12/12/12 17/17/17 
f 13/13/13 12/12/12 14/14/14 
f 18/18/18 19/19/19 20/20/20 
f 18/18/18 11/11/11 19/19/19 
f 12/12/12 11/11/11 18/18/18 
s 2
f 21/21/21 6/22/22 5/23/21 
f 6/22/22 21/21/21 22/24/22 
f 23/25/23 19/26/24 24/27/24 
f 19/26/24 23/25/23 20/28/23 
s 1
f 25/29/25 21/30/26 26/31/26 
f 21/30/26 25/29/25 22/32/25 
s 4
f 26/33/27 23/34/27 27/35/27 
f 15/36/27 1/37/27 3/38/27 
f 17/39/27 1/37/27 15/36/27 
f 17/39/27 9/40/27 1/37/27 
f 12/41/27 9/40/27 17/39/27 
f 12/41/27 7/42/27 9/40/27 
f 18/43/27 7/42/27 12/41/27 
f 18/43/27 5/44/27 7/42/27 
f 20/45/27 5/44/27 18/43/27 
f 23/34/27 5/44/27 20/45/27 
f 23/34/27 21/46/27 5/44/27 
f 23/34/27 26/33/27 21/46/27 
s 1
f 27/47/28 24/48/29 28/49/29 
f 24/48/29 27/47/28 23/50/28 
s 4
f 24/51/30 25/35/30 28/33/30 
f 10/52/30 16/53/30 2/54/30 
f 10/52/30 14/55/30 16/53/30 
f 8/56/30 14/55/30 10/52/30 
f 8/56/30 13/57/30 14/55/30 
f 4/58/30 13/57/30 8/56/30 
f 4/58/30 11/59/30 13/57/30 
f 6/60/30 11/59/30 4/58/30 
f 6/60/30 19/61/30 11/59/30 
f 6/60/30 24/51/30 19/61/30 
f 22/62/30 24/51/30 6/60/30 
f 25/35/30 24/51/30 22/62/30 
s 2
f 16/63/31 3/64/31 2/65/31 
f 3/64/31 16/63/31 15/66/31 
f 25/67/32 27/68/32 28/69/32 
f 27/68/32 25/67/32 26/70/32 
# 0 polygons - 52 triangles

