# 3ds Max Wavefront OBJ Exporter v0.97b - (c)2007 guruware
# File Created: 24.05.2015 19:27:04

mtllib tankcannon.mtl

#
# object cannonScalled
#

v  -0.0000 0.0984 -0.3812
v  0.4921 0.0716 -0.3871
v  0.0190 0.0966 -0.3817
v  -0.0984 0.0000 -0.3937
v  -0.4921 -0.0716 -0.3871
v  -0.4921 0.0000 -0.3937
v  -0.4921 0.3937 0.0000
v  0.4921 0.3871 0.0716
v  0.4921 0.3937 0.0000
v  -0.4921 0.3871 0.0716
v  0.4921 0.3871 -0.0716
v  -0.4921 0.3871 -0.0716
v  0.4921 0.3661 -0.1449
v  -0.4921 0.3661 -0.1449
v  0.4921 0.3295 -0.2154
v  -0.4921 0.3295 -0.2154
v  0.4921 0.2784 -0.2784
v  -0.4921 0.2784 -0.2784
v  0.4921 0.2154 -0.3295
v  -0.4921 0.2154 -0.3295
v  0.4921 0.1449 -0.3661
v  -0.4921 0.1449 -0.3661
v  -0.4921 0.3661 0.1449
v  0.4921 0.3661 0.1449
v  -0.4921 0.3295 0.2154
v  0.4921 0.3295 0.2154
v  -0.4921 0.2784 0.2784
v  0.4921 0.2784 0.2784
v  -0.4921 0.2154 0.3295
v  0.4921 0.2154 0.3295
v  0.4921 0.1449 0.3661
v  -0.4921 0.1449 0.3661
v  -0.4921 0.0716 0.3871
v  0.4921 0.0716 0.3871
v  -0.4921 -0.0000 0.3937
v  0.4921 -0.0000 0.3937
v  -0.4921 -0.0716 0.3871
v  0.4921 -0.0716 0.3871
v  -0.4921 -0.1449 0.3661
v  0.4921 -0.1449 0.3661
v  -0.4921 -0.2154 0.3295
v  0.4921 -0.2154 0.3295
v  -0.4921 -0.2784 0.2784
v  0.4921 -0.2784 0.2784
v  -0.4921 -0.3295 0.2154
v  0.4921 -0.3295 0.2154
v  0.4921 -0.3661 0.1449
v  -0.4921 -0.3661 0.1449
v  -0.4921 -0.3871 0.0716
v  0.4921 -0.3871 0.0716
v  -0.4921 -0.3937 -0.0000
v  0.4921 -0.3937 -0.0000
v  -0.4921 -0.3871 -0.0716
v  0.4921 -0.3871 -0.0716
v  -0.4921 -0.3661 -0.1449
v  0.4921 -0.3661 -0.1449
v  -0.4921 -0.3295 -0.2154
v  0.4921 -0.3295 -0.2154
v  -0.4921 -0.2784 -0.2784
v  0.4921 -0.2784 -0.2784
v  -0.4921 -0.2154 -0.3295
v  0.4921 -0.2154 -0.3295
v  -0.4921 -0.1449 -0.3661
v  0.4921 -0.1449 -0.3661
v  -0.4921 0.0716 -0.3871
v  -0.0966 0.0190 -0.3932
v  -0.0966 -0.0190 -0.3932
v  -0.0909 -0.0377 -0.3919
v  -0.0909 0.0377 -0.3919
v  -0.0816 -0.0549 -0.3898
v  -0.0696 -0.0696 -0.3875
v  -0.0549 -0.0816 -0.3851
v  -0.0377 -0.0909 -0.3831
v  -0.0190 -0.0966 -0.3817
v  0.0000 -0.0984 -0.3812
v  0.0190 -0.0966 -0.3817
v  0.0377 -0.0909 -0.3831
v  0.0549 -0.0816 -0.3851
v  0.0696 -0.0696 -0.3875
v  0.4921 -0.0716 -0.3871
v  0.0816 -0.0549 -0.3898
v  0.0909 -0.0377 -0.3919
v  0.0966 -0.0190 -0.3932
v  0.0984 0.0000 -0.3937
v  0.4921 0.0000 -0.3937
v  0.0966 0.0190 -0.3932
v  0.0909 0.0377 -0.3919
v  0.0816 0.0549 -0.3898
v  -0.0816 0.0549 -0.3898
v  0.0696 0.0696 -0.3875
v  -0.0696 0.0696 -0.3875
v  -0.0549 0.0816 -0.3851
v  0.0549 0.0816 -0.3851
v  -0.0377 0.0909 -0.3831
v  0.0377 0.0909 -0.3831
v  -0.0190 0.0966 -0.3817
v  0.0968 -0.0179 -2.9528
v  0.0984 0.0000 -2.9528
v  0.0000 0.0984 -2.9528
v  0.0179 0.0968 -2.9528
v  0.0362 0.0915 -2.9528
v  0.0539 0.0824 -2.9528
v  0.0696 0.0696 -2.9528
v  0.0824 0.0539 -2.9528
v  0.0915 0.0362 -2.9528
v  0.0968 0.0179 -2.9528
v  -0.0179 0.0968 -2.9528
v  -0.0362 0.0915 -2.9528
v  -0.0539 0.0824 -2.9528
v  -0.0696 0.0696 -2.9528
v  -0.0824 0.0539 -2.9528
v  -0.0915 0.0362 -2.9528
v  -0.0968 0.0179 -2.9528
v  -0.0984 0.0000 -2.9528
v  -0.0968 -0.0179 -2.9528
v  -0.0915 -0.0362 -2.9528
v  -0.0824 -0.0539 -2.9528
v  -0.0696 -0.0696 -2.9528
v  -0.0539 -0.0824 -2.9528
v  -0.0362 -0.0915 -2.9528
v  -0.0179 -0.0968 -2.9528
v  0.0000 -0.0984 -2.9528
v  0.0179 -0.0968 -2.9528
v  0.0362 -0.0915 -2.9528
v  0.0539 -0.0824 -2.9528
v  0.0696 -0.0696 -2.9528
v  0.0824 -0.0539 -2.9528
v  0.0915 -0.0362 -2.9528
# 128 vertices

vn 0.0000 0.2500 -0.9682
vn -0.0000 0.1820 -0.9833
vn -0.0000 0.2452 -0.9695
vn 0.0000 0.0000 -1.0000
vn 0.0000 -0.1820 -0.9833
vn 0.0000 1.0000 0.0000
vn -0.0000 0.9833 0.1820
vn 0.0000 0.9833 -0.1820
vn -0.0000 0.9298 -0.3681
vn 0.0000 0.8370 -0.5472
vn 0.0000 0.7071 -0.7071
vn 0.0000 0.5472 -0.8370
vn 0.0000 0.3681 -0.9298
vn 0.0000 0.9298 0.3681
vn 0.0000 0.8370 0.5472
vn 0.0000 0.7071 0.7071
vn -0.0000 0.5472 0.8370
vn 0.0000 0.5472 0.8370
vn -0.0000 0.3681 0.9298
vn 0.0000 0.1820 0.9833
vn 0.0000 -0.0000 1.0000
vn -0.0000 -0.1820 0.9833
vn 0.0000 -0.3681 0.9298
vn 0.0000 -0.5472 0.8370
vn 0.0000 -0.7071 0.7071
vn 0.0000 -0.8370 0.5472
vn 0.0000 -0.9298 0.3681
vn -0.0000 -0.9833 0.1820
vn 0.0000 -1.0000 -0.0000
vn 0.0000 -0.9833 -0.1820
vn 0.0000 -0.9298 -0.3681
vn 0.0000 -0.8370 -0.5472
vn 0.0000 -0.7071 -0.7071
vn 0.0000 -0.5472 -0.8370
vn -0.0000 -0.3681 -0.9298
vn 0.0000 0.1820 -0.9833
vn -0.0000 0.0482 -0.9988
vn -0.0000 -0.0482 -0.9988
vn 0.0000 -0.0959 -0.9954
vn -0.0000 0.0959 -0.9954
vn -0.0000 -0.1396 -0.9902
vn 0.0000 -0.1768 -0.9842
vn 0.0000 -0.2073 -0.9783
vn 0.0000 -0.2309 -0.9730
vn -0.0000 -0.2452 -0.9695
vn -0.0000 -0.2500 -0.9682
vn 0.0000 -0.2452 -0.9695
vn 0.0000 0.0482 -0.9988
vn 0.0000 0.1396 -0.9902
vn -0.0000 0.1768 -0.9842
vn 0.0000 0.1768 -0.9842
vn 0.0000 0.2073 -0.9783
vn 0.0000 0.2309 -0.9730
vn 0.0000 0.2452 -0.9695
vn -1.0000 0.0000 -0.0000
vn 1.0000 0.0000 -0.0000
vn 1.0000 -0.0000 -0.0000
vn 0.9833 -0.1820 -0.0000
vn 0.1929 0.9812 0.0000
vn -0.0000 1.0000 0.0000
vn 0.1820 0.9833 0.0000
vn 0.3834 0.9236 0.0000
vn 0.3681 0.9298 0.0000
vn 0.5584 0.8296 0.0000
vn 0.5472 0.8370 0.0000
vn 0.7071 0.7071 0.0000
vn 0.8295 0.5584 0.0000
vn 0.8370 0.5472 0.0000
vn 0.9236 0.3835 0.0000
vn 0.9298 0.3681 0.0000
vn 0.9812 0.1929 0.0000
vn 0.9833 0.1820 0.0000
vn -0.1820 0.9833 0.0000
vn -0.1929 0.9812 0.0000
vn -0.3681 0.9298 0.0000
vn -0.3834 0.9236 0.0000
vn -0.5584 0.8296 0.0000
vn -0.5472 0.8370 0.0000
vn -0.7071 0.7071 0.0000
vn -0.8295 0.5584 0.0000
vn -0.8370 0.5472 0.0000
vn -0.9236 0.3835 0.0000
vn -0.9298 0.3681 0.0000
vn -0.9812 0.1929 0.0000
vn -0.9833 0.1820 0.0000
vn -1.0000 -0.0000 -0.0000
vn -0.9833 -0.1820 -0.0000
vn -0.9812 -0.1929 -0.0000
vn -0.9298 -0.3681 -0.0000
vn -0.9236 -0.3835 -0.0000
vn -0.8370 -0.5472 -0.0000
vn -0.8295 -0.5584 -0.0000
vn -0.7071 -0.7071 -0.0000
vn -0.5472 -0.8370 -0.0000
vn -0.5584 -0.8296 -0.0000
vn -0.3681 -0.9298 -0.0000
vn -0.3834 -0.9236 -0.0000
vn -0.1820 -0.9833 -0.0000
vn -0.1929 -0.9812 -0.0000
vn -0.0000 -1.0000 -0.0000
vn 0.1929 -0.9812 -0.0000
vn 0.1820 -0.9833 -0.0000
vn 0.3681 -0.9298 -0.0000
vn 0.3834 -0.9236 -0.0000
vn 0.5584 -0.8296 -0.0000
vn 0.5472 -0.8370 -0.0000
vn 0.7071 -0.7071 -0.0000
vn 0.8295 -0.5584 -0.0000
vn 0.8370 -0.5472 -0.0000
vn 0.9236 -0.3835 -0.0000
vn 0.9298 -0.3681 -0.0000
vn 0.9812 -0.1929 -0.0000
# 112 vertex normals

vt 0.9909 3.2061 0.0000
vt 0.1652 3.1599 0.0000
vt 0.9591 3.2028 0.0000
vt 1.1561 3.0335 0.0000
vt 1.8167 2.9071 0.0000
vt 1.8167 3.0335 0.0000
vt 1.8167 0.0000 0.0000
vt 0.1652 0.1264 0.0000
vt 0.1652 0.0000 0.0000
vt 1.8167 0.1264 0.0000
vt 0.1652 3.9183 0.0000
vt 1.8167 4.0447 0.0000
vt 0.1652 4.0447 0.0000
vt 1.8167 3.9183 0.0000
vt 0.1652 3.7919 0.0000
vt 1.8167 3.7919 0.0000
vt 0.1652 3.6655 0.0000
vt 1.8167 3.6655 0.0000
vt 0.1652 3.5391 0.0000
vt 1.8167 3.5391 0.0000
vt 0.1652 3.4127 0.0000
vt 1.8167 3.4127 0.0000
vt 0.1652 3.2863 0.0000
vt 1.8167 3.2863 0.0000
vt 1.8167 0.2528 0.0000
vt 0.1652 0.2528 0.0000
vt 1.8167 0.3792 0.0000
vt 0.1652 0.3792 0.0000
vt 1.8167 0.5056 0.0000
vt 0.1652 0.5056 0.0000
vt 1.8167 0.6320 0.0000
vt 0.1652 0.6320 0.0000
vt 0.1652 0.7584 0.0000
vt 1.8167 0.7584 0.0000
vt 1.8167 0.8848 0.0000
vt 0.1652 0.8848 0.0000
vt 1.8167 1.0112 0.0000
vt 0.1652 1.0112 0.0000
vt 1.8167 1.1376 0.0000
vt 0.1652 1.1376 0.0000
vt 1.8167 1.2640 0.0000
vt 0.1652 1.2640 0.0000
vt 1.8167 1.3904 0.0000
vt 0.1652 1.3904 0.0000
vt 1.8167 1.5168 0.0000
vt 0.1652 1.5168 0.0000
vt 1.8167 1.6432 0.0000
vt 0.1652 1.6432 0.0000
vt 0.1652 1.7695 0.0000
vt 1.8167 1.7695 0.0000
vt 1.8167 1.8959 0.0000
vt 0.1652 1.8959 0.0000
vt 1.8167 2.0223 0.0000
vt 0.1652 2.0223 0.0000
vt 1.8167 2.1487 0.0000
vt 0.1652 2.1487 0.0000
vt 1.8167 2.2751 0.0000
vt 0.1652 2.2751 0.0000
vt 1.8167 2.4015 0.0000
vt 0.1652 2.4015 0.0000
vt 1.8167 2.5279 0.0000
vt 0.1652 2.5279 0.0000
vt 1.8167 2.6543 0.0000
vt 0.1652 2.6543 0.0000
vt 1.8167 2.7807 0.0000
vt 0.1652 2.7807 0.0000
vt 1.8167 3.1599 0.0000
vt 1.1529 3.0677 0.0000
vt 1.1529 2.9994 0.0000
vt 1.1435 2.9661 0.0000
vt 1.1435 3.1009 0.0000
vt 1.1279 2.9361 0.0000
vt 1.1077 2.9106 0.0000
vt 1.0831 2.8899 0.0000
vt 1.0543 2.8739 0.0000
vt 1.0228 2.8642 0.0000
vt 0.9909 2.8610 0.0000
vt 0.9591 2.8642 0.0000
vt 0.9276 2.8739 0.0000
vt 0.8988 2.8899 0.0000
vt 0.8742 2.9106 0.0000
vt 0.1652 2.9071 0.0000
vt 0.8540 2.9361 0.0000
vt 0.8384 2.9661 0.0000
vt 0.8289 2.9994 0.0000
vt 0.8258 3.0335 0.0000
vt 0.1652 3.0335 0.0000
vt 0.8289 3.0677 0.0000
vt 0.8384 3.1009 0.0000
vt 0.8540 3.1310 0.0000
vt 1.1279 3.1310 0.0000
vt 0.8742 3.1564 0.0000
vt 1.1077 3.1564 0.0000
vt 1.0831 3.1772 0.0000
vt 0.8988 3.1772 0.0000
vt 1.0543 3.1931 0.0000
vt 0.9276 3.1931 0.0000
vt 1.0228 3.2028 0.0000
vt 0.6496 -0.5404 0.0000
vt 0.6496 -0.7808 0.0000
vt 0.6606 -0.6606 0.0000
vt 0.1202 -0.0110 0.0000
vt 0.3615 -0.1077 0.0000
vt 0.2432 -0.0464 0.0000
vt 0.4671 -0.1935 0.0000
vt 0.5529 -0.2991 0.0000
vt -0.0000 0.0000 0.0000
vt 0.6142 -0.4174 0.0000
vt -0.1202 -0.0110 0.0000
vt -0.2432 -0.0464 0.0000
vt -0.3615 -0.1077 0.0000
vt -0.4671 -0.1935 0.0000
vt -0.5529 -0.2991 0.0000
vt -0.6142 -0.4174 0.0000
vt -0.6496 -0.5404 0.0000
vt -0.6606 -0.6606 0.0000
vt -0.6496 -0.7808 0.0000
vt -0.6142 -0.9037 0.0000
vt -0.5529 -1.0221 0.0000
vt -0.4671 -1.1277 0.0000
vt -0.3615 -1.2135 0.0000
vt -0.2432 -1.2748 0.0000
vt -0.1202 -1.3101 0.0000
vt -0.0000 -1.3212 0.0000
vt 0.1202 -1.3101 0.0000
vt 0.2432 -1.2748 0.0000
vt 0.3615 -1.2135 0.0000
vt 0.4671 -1.1277 0.0000
vt 0.5529 -1.0221 0.0000
vt 0.6142 -0.9037 0.0000
vt 0.6142 0.2432 0.0000
vt 0.6606 0.0000 0.0000
vt 0.6496 0.1202 0.0000
vt 0.1202 0.6496 0.0000
vt 0.3615 0.5529 0.0000
vt 0.2432 0.6142 0.0000
vt 0.4671 0.4671 0.0000
vt 0.5529 0.3615 0.0000
vt 0.0000 0.6606 0.0000
vt -0.1202 0.6496 0.0000
vt -0.2432 0.6142 0.0000
vt -0.3615 0.5529 0.0000
vt -0.4671 0.4671 0.0000
vt -0.5529 0.3615 0.0000
vt -0.6142 0.2432 0.0000
vt -0.6496 0.1202 0.0000
vt -0.6606 -0.0000 0.0000
vt -0.6496 -0.1202 0.0000
vt -0.6142 -0.2432 0.0000
vt -0.5529 -0.3615 0.0000
vt -0.4671 -0.4671 0.0000
vt -0.3615 -0.5529 0.0000
vt -0.2432 -0.6142 0.0000
vt -0.1202 -0.6496 0.0000
vt 0.0000 -0.6606 0.0000
vt 0.1202 -0.6496 0.0000
vt 0.2432 -0.6142 0.0000
vt 0.3615 -0.5529 0.0000
vt 0.4671 -0.4671 0.0000
vt 0.5529 -0.3615 0.0000
vt 0.6142 -0.2432 0.0000
vt 0.6496 -0.1202 0.0000
vt 4.7253 0.2528 0.0000
vt 0.4315 0.2844 0.0000
vt 0.4315 0.2528 0.0000
vt 4.7455 0.0335 0.0000
vt 0.4315 0.0000 0.0000
vt 4.7463 0.0000 0.0000
vt 0.4315 0.0316 0.0000
vt 4.7432 0.0658 0.0000
vt 0.4315 0.0632 0.0000
vt 4.7397 0.0969 0.0000
vt 0.4315 0.0948 0.0000
vt 4.7357 0.1264 0.0000
vt 0.4315 0.1264 0.0000
vt 4.7318 0.1559 0.0000
vt 0.4315 0.1580 0.0000
vt 4.7283 0.1870 0.0000
vt 0.4315 0.1896 0.0000
vt 4.7261 0.2193 0.0000
vt 0.4315 0.2212 0.0000
vt 0.4315 0.9796 0.0000
vt 4.7463 1.0112 0.0000
vt 0.4315 1.0112 0.0000
vt 4.7455 0.9777 0.0000
vt 0.4315 0.9480 0.0000
vt 4.7432 0.9453 0.0000
vt 4.7397 0.9143 0.0000
vt 0.4315 0.9164 0.0000
vt 4.7357 0.8848 0.0000
vt 0.4315 0.8848 0.0000
vt 4.7318 0.8553 0.0000
vt 0.4315 0.8532 0.0000
vt 4.7283 0.8242 0.0000
vt 0.4315 0.8216 0.0000
vt 4.7261 0.7918 0.0000
vt 0.4315 0.7900 0.0000
vt 4.7253 0.7584 0.0000
vt 0.4315 0.7584 0.0000
vt 0.4315 0.7268 0.0000
vt 4.7261 0.7249 0.0000
vt 0.4315 0.6952 0.0000
vt 4.7283 0.6925 0.0000
vt 0.4315 0.6636 0.0000
vt 4.7318 0.6615 0.0000
vt 0.4315 0.6320 0.0000
vt 4.7357 0.6320 0.0000
vt 0.4315 0.6004 0.0000
vt 4.7397 0.6024 0.0000
vt 0.4315 0.5688 0.0000
vt 4.7432 0.5714 0.0000
vt 0.4315 0.5372 0.0000
vt 4.7455 0.5390 0.0000
vt 0.4315 0.5056 0.0000
vt 4.7463 0.5056 0.0000
vt 4.7455 0.4721 0.0000
vt 0.4315 0.4740 0.0000
vt 0.4315 0.4424 0.0000
vt 4.7432 0.4398 0.0000
vt 4.7397 0.4087 0.0000
vt 0.4315 0.4108 0.0000
vt 4.7357 0.3792 0.0000
vt 0.4315 0.3792 0.0000
vt 4.7318 0.3497 0.0000
vt 0.4315 0.3476 0.0000
vt 4.7283 0.3186 0.0000
vt 0.4315 0.3160 0.0000
vt 4.7261 0.2863 0.0000
vt 0.1535 0.0608 0.0000
vt 0.1651 -0.0000 0.0000
vt 0.1624 0.0301 0.0000
vt 0.0301 0.1624 0.0000
vt 0.0904 0.1382 0.0000
vt 0.0608 0.1535 0.0000
vt 0.1168 0.1168 0.0000
vt 0.1382 0.0904 0.0000
vt 0.0000 0.1651 0.0000
vt -0.0301 0.1624 0.0000
vt -0.0608 0.1535 0.0000
vt -0.0904 0.1382 0.0000
vt -0.1168 0.1168 0.0000
vt -0.1382 0.0904 0.0000
vt -0.1535 0.0608 0.0000
vt -0.1624 0.0301 0.0000
vt -0.1651 0.0000 0.0000
vt -0.1624 -0.0301 0.0000
vt -0.1535 -0.0608 0.0000
vt -0.1382 -0.0904 0.0000
vt -0.1168 -0.1168 0.0000
vt -0.0904 -0.1382 0.0000
vt -0.0608 -0.1535 0.0000
vt -0.0301 -0.1624 0.0000
vt -0.0000 -0.1651 0.0000
vt 0.0301 -0.1624 0.0000
vt 0.0608 -0.1535 0.0000
vt 0.0904 -0.1382 0.0000
vt 0.1168 -0.1168 0.0000
vt 0.1382 -0.0904 0.0000
vt 0.1535 -0.0608 0.0000
vt 0.1624 -0.0301 0.0000
# 260 texture coords

g cannonScalled
usemtl wire_191191191
s 1
f 1/1/1 2/2/2 3/3/3 
f 4/4/4 5/5/5 6/6/4 
f 7/7/6 8/8/7 9/9/6 
f 10/10/7 8/8/7 7/7/6 
f 11/11/8 7/12/6 9/13/6 
f 11/11/8 12/14/8 7/12/6 
f 13/15/9 12/14/8 11/11/8 
f 13/15/9 14/16/9 12/14/8 
f 15/17/10 14/16/9 13/15/9 
f 15/17/10 16/18/10 14/16/9 
f 17/19/11 16/18/10 15/17/10 
f 17/19/11 18/20/11 16/18/10 
f 19/21/12 18/20/11 17/19/11 
f 19/21/12 20/22/12 18/20/11 
f 21/23/13 20/22/12 19/21/12 
f 21/23/13 22/24/13 20/22/12 
f 2/2/2 22/24/13 21/23/13 
f 23/25/14 8/8/7 10/10/7 
f 23/25/14 24/26/14 8/8/7 
f 25/27/15 24/26/14 23/25/14 
f 25/27/15 26/28/15 24/26/14 
f 27/29/16 26/28/15 25/27/15 
f 27/29/16 28/30/16 26/28/15 
f 29/31/17 28/30/16 27/29/16 
f 29/31/17 30/32/18 28/30/16 
f 29/31/17 31/33/19 30/32/18 
f 32/34/19 31/33/19 29/31/17 
f 33/35/20 31/33/19 32/34/19 
f 33/35/20 34/36/20 31/33/19 
f 35/37/21 34/36/20 33/35/20 
f 35/37/21 36/38/21 34/36/20 
f 37/39/22 36/38/21 35/37/21 
f 37/39/22 38/40/22 36/38/21 
f 39/41/23 38/40/22 37/39/22 
f 39/41/23 40/42/23 38/40/22 
f 41/43/24 40/42/23 39/41/23 
f 41/43/24 42/44/24 40/42/23 
f 43/45/25 42/44/24 41/43/24 
f 43/45/25 44/46/25 42/44/24 
f 45/47/26 44/46/25 43/45/25 
f 45/47/26 46/48/26 44/46/25 
f 45/47/26 47/49/27 46/48/26 
f 48/50/27 47/49/27 45/47/26 
f 49/51/28 47/49/27 48/50/27 
f 49/51/28 50/52/28 47/49/27 
f 51/53/29 50/52/28 49/51/28 
f 51/53/29 52/54/29 50/52/28 
f 53/55/30 52/54/29 51/53/29 
f 53/55/30 54/56/30 52/54/29 
f 55/57/31 54/56/30 53/55/30 
f 55/57/31 56/58/31 54/56/30 
f 57/59/32 56/58/31 55/57/31 
f 57/59/32 58/60/32 56/58/31 
f 59/61/33 58/60/32 57/59/32 
f 59/61/33 60/62/33 58/60/32 
f 61/63/34 60/62/33 59/61/33 
f 61/63/34 62/64/34 60/62/33 
f 63/65/35 62/64/34 61/63/34 
f 63/65/35 64/66/35 62/64/34 
f 5/5/5 64/66/35 63/65/35 
f 65/67/36 4/4/4 6/6/4 
f 65/67/36 66/68/37 4/4/4 
f 67/69/38 5/5/5 4/4/4 
f 68/70/39 5/5/5 67/69/38 
f 65/67/36 69/71/40 66/68/37 
f 70/72/41 5/5/5 68/70/39 
f 71/73/42 5/5/5 70/72/41 
f 72/74/43 5/5/5 71/73/42 
f 73/75/44 5/5/5 72/74/43 
f 74/76/45 5/5/5 73/75/44 
f 75/77/46 5/5/5 74/76/45 
f 75/77/46 64/66/35 5/5/5 
f 76/78/47 64/66/35 75/77/46 
f 77/79/44 64/66/35 76/78/47 
f 78/80/43 64/66/35 77/79/44 
f 79/81/42 64/66/35 78/80/43 
f 79/81/42 80/82/5 64/66/35 
f 81/83/41 80/82/5 79/81/42 
f 82/84/39 80/82/5 81/83/41 
f 83/85/38 80/82/5 82/84/39 
f 84/86/4 80/82/5 83/85/38 
f 84/86/4 85/87/4 80/82/5 
f 84/86/4 2/2/2 85/87/4 
f 86/88/48 2/2/2 84/86/4 
f 87/89/40 2/2/2 86/88/48 
f 88/90/49 2/2/2 87/89/40 
f 65/67/36 89/91/49 69/71/40 
f 90/92/50 2/2/2 88/90/49 
f 65/67/36 91/93/51 89/91/49 
f 22/24/13 91/93/51 65/67/36 
f 22/24/13 92/94/52 91/93/51 
f 93/95/52 2/2/2 90/92/50 
f 22/24/13 94/96/53 92/94/52 
f 95/97/53 2/2/2 93/95/52 
f 22/24/13 96/98/54 94/96/53 
f 3/3/3 2/2/2 95/97/53 
f 22/24/13 1/1/1 96/98/54 
f 2/2/2 1/1/1 22/24/13 
s 2
f 33/99/55 37/100/55 35/101/55 
f 10/102/55 25/103/55 23/104/55 
f 10/102/55 27/105/55 25/103/55 
f 10/102/55 29/106/55 27/105/55 
f 7/107/55 29/106/55 10/102/55 
f 7/107/55 32/108/55 29/106/55 
f 12/109/55 32/108/55 7/107/55 
f 14/110/55 32/108/55 12/109/55 
f 16/111/55 32/108/55 14/110/55 
f 18/112/55 32/108/55 16/111/55 
f 20/113/55 32/108/55 18/112/55 
f 22/114/55 32/108/55 20/113/55 
f 65/115/55 32/108/55 22/114/55 
f 6/116/55 32/108/55 65/115/55 
f 5/117/55 32/108/55 6/116/55 
f 63/118/55 32/108/55 5/117/55 
f 61/119/55 32/108/55 63/118/55 
f 59/120/55 32/108/55 61/119/55 
f 57/121/55 32/108/55 59/120/55 
f 55/122/55 32/108/55 57/121/55 
f 53/123/55 32/108/55 55/122/55 
f 51/124/55 32/108/55 53/123/55 
f 49/125/55 32/108/55 51/124/55 
f 49/125/55 33/99/55 32/108/55 
f 48/126/55 33/99/55 49/125/55 
f 45/127/55 33/99/55 48/126/55 
f 43/128/55 33/99/55 45/127/55 
f 41/129/55 33/99/55 43/128/55 
f 39/130/55 33/99/55 41/129/55 
f 37/100/55 33/99/55 39/130/55 
f 21/131/56 85/132/56 2/133/56 
f 11/134/56 15/135/56 13/136/56 
f 11/134/56 17/137/56 15/135/56 
f 11/134/56 19/138/56 17/137/56 
f 9/139/56 19/138/56 11/134/56 
f 9/139/56 21/131/56 19/138/56 
f 8/140/56 21/131/56 9/139/56 
f 24/141/56 21/131/56 8/140/56 
f 26/142/56 21/131/56 24/141/56 
f 28/143/56 21/131/56 26/142/56 
f 30/144/56 21/131/56 28/143/56 
f 31/145/56 21/131/56 30/144/56 
f 34/146/56 21/131/56 31/145/56 
f 36/147/56 21/131/56 34/146/56 
f 38/148/56 21/131/56 36/147/56 
f 40/149/56 21/131/56 38/148/56 
f 42/150/56 21/131/56 40/149/56 
f 44/151/56 21/131/56 42/150/56 
f 46/152/56 21/131/56 44/151/56 
f 47/153/56 21/131/56 46/152/56 
f 50/154/56 21/131/56 47/153/56 
f 52/155/56 21/131/56 50/154/56 
f 54/156/56 21/131/56 52/155/56 
f 56/157/56 21/131/56 54/156/56 
f 58/158/56 21/131/56 56/157/56 
f 60/159/56 21/131/56 58/158/56 
f 62/160/56 21/131/56 60/159/56 
f 64/161/56 21/131/56 62/160/56 
f 80/162/56 21/131/56 64/161/56 
f 85/132/56 21/131/56 80/162/56 
f 84/163/57 97/164/58 98/165/57 
f 3/166/59 99/167/60 1/168/60 
f 3/166/59 100/169/61 99/167/60 
f 95/170/62 100/169/61 3/166/59 
f 95/170/62 101/171/63 100/169/61 
f 93/172/64 101/171/63 95/170/62 
f 93/172/64 102/173/65 101/171/63 
f 90/174/66 102/173/65 93/172/64 
f 90/174/66 103/175/66 102/173/65 
f 88/176/67 103/175/66 90/174/66 
f 88/176/67 104/177/68 103/175/66 
f 87/178/69 104/177/68 88/176/67 
f 87/178/69 105/179/70 104/177/68 
f 86/180/71 105/179/70 87/178/69 
f 86/180/71 106/181/72 105/179/70 
f 84/163/57 106/181/72 86/180/71 
f 84/163/57 98/165/57 106/181/72 
f 107/182/73 1/183/60 99/184/60 
f 107/182/73 96/185/74 1/183/60 
f 108/186/75 96/185/74 107/182/73 
f 108/186/75 94/187/76 96/185/74 
f 108/186/75 92/188/77 94/187/76 
f 109/189/78 92/188/77 108/186/75 
f 109/189/78 91/190/79 92/188/77 
f 110/191/79 91/190/79 109/189/78 
f 110/191/79 89/192/80 91/190/79 
f 111/193/81 89/192/80 110/191/79 
f 111/193/81 69/194/82 89/192/80 
f 112/195/83 69/194/82 111/193/81 
f 112/195/83 66/196/84 69/194/82 
f 113/197/85 66/196/84 112/195/83 
f 113/197/85 4/198/86 66/196/84 
f 114/199/86 4/198/86 113/197/85 
f 115/200/87 4/198/86 114/199/86 
f 115/200/87 67/201/88 4/198/86 
f 116/202/89 67/201/88 115/200/87 
f 116/202/89 68/203/90 67/201/88 
f 117/204/91 68/203/90 116/202/89 
f 117/204/91 70/205/92 68/203/90 
f 118/206/93 70/205/92 117/204/91 
f 118/206/93 71/207/93 70/205/92 
f 119/208/94 71/207/93 118/206/93 
f 119/208/94 72/209/95 71/207/93 
f 120/210/96 72/209/95 119/208/94 
f 120/210/96 73/211/97 72/209/95 
f 121/212/98 73/211/97 120/210/96 
f 121/212/98 74/213/99 73/211/97 
f 122/214/100 74/213/99 121/212/98 
f 122/214/100 75/215/29 74/213/99 
f 122/214/100 76/216/101 75/215/29 
f 123/217/102 76/216/101 122/214/100 
f 124/218/103 76/216/101 123/217/102 
f 124/218/103 77/219/104 76/216/101 
f 124/218/103 78/220/105 77/219/104 
f 125/221/106 78/220/105 124/218/103 
f 125/221/106 79/222/107 78/220/105 
f 126/223/107 79/222/107 125/221/106 
f 126/223/107 81/224/108 79/222/107 
f 127/225/109 81/224/108 126/223/107 
f 127/225/109 82/226/110 81/224/108 
f 128/227/111 82/226/110 127/225/109 
f 128/227/111 83/228/112 82/226/110 
f 97/164/58 83/228/112 128/227/111 
f 97/164/58 84/163/57 83/228/112 
s 1
f 112/229/4 114/230/4 113/231/4 
f 107/232/4 109/233/4 108/234/4 
f 107/232/4 110/235/4 109/233/4 
f 107/232/4 111/236/4 110/235/4 
f 99/237/4 111/236/4 107/232/4 
f 99/237/4 112/229/4 111/236/4 
f 100/238/4 112/229/4 99/237/4 
f 101/239/4 112/229/4 100/238/4 
f 102/240/4 112/229/4 101/239/4 
f 103/241/4 112/229/4 102/240/4 
f 104/242/4 112/229/4 103/241/4 
f 105/243/4 112/229/4 104/242/4 
f 106/244/4 112/229/4 105/243/4 
f 98/245/4 112/229/4 106/244/4 
f 97/246/4 112/229/4 98/245/4 
f 128/247/4 112/229/4 97/246/4 
f 127/248/4 112/229/4 128/247/4 
f 126/249/4 112/229/4 127/248/4 
f 125/250/4 112/229/4 126/249/4 
f 124/251/4 112/229/4 125/250/4 
f 123/252/4 112/229/4 124/251/4 
f 122/253/4 112/229/4 123/252/4 
f 121/254/4 112/229/4 122/253/4 
f 120/255/4 112/229/4 121/254/4 
f 119/256/4 112/229/4 120/255/4 
f 118/257/4 112/229/4 119/256/4 
f 117/258/4 112/229/4 118/257/4 
f 116/259/4 112/229/4 117/258/4 
f 115/260/4 112/229/4 116/259/4 
f 114/230/4 112/229/4 115/260/4 
# 0 polygons - 252 triangles

